<svg width="1268" height="270" viewBox="0 0 1268 270" fill="none" xmlns="http://www.w3.org/2000/svg">
<path fill-rule="evenodd" clip-rule="evenodd" d="M513.04 11.52L443.38 81.18C442.66 81.9 442.12 82.8 441.58 83.7C441.22 84.78 441.04 85.68 441.04 86.76V185.22C441.04 186.3 441.22 187.38 441.58 188.28C442.12 189.36 442.66 190.26 443.38 190.98L513.04 260.64C513.76 261.36 514.66 261.9 515.56 262.26C516.64 262.8 517.72 262.98 518.62 262.98H617.26C618.16 262.98 619.24 262.8 620.32 262.26C621.22 261.9 622.12 261.36 622.84 260.64L692.5 190.98C693.22 190.26 693.76 189.36 694.3 188.28C694.66 187.38 694.84 186.3 694.84 185.22V86.76C694.84 85.68 694.66 84.78 694.3 83.7C693.76 82.8 693.22 81.9 692.5 81.18L622.84 11.52C622.12 10.8 621.22 10.08 620.32 9.72001C619.24 9.36001 618.16 9.18001 617.26 9.18001H518.62C517.72 9.18001 516.64 9.36001 515.56 9.72001C514.66 10.08 513.76 10.8 513.04 11.52Z" fill="white"/>
<path fill-rule="evenodd" clip-rule="evenodd" d="M521.5 23.94H614.38L680.08 89.64V182.52L614.38 248.22H521.5L455.8 182.52V89.64" fill="#FF0000"/>
<path d="M509.44 114.3H509.62" stroke="white" stroke-width="2.88" stroke-linecap="round" stroke-linejoin="round"/>
<path fill-rule="evenodd" clip-rule="evenodd" d="M515.2 86.94L521.14 82.44C515.74 77.4 510.7 75.06 504.58 75.06C500.44 75.06 495.94 76.14 492.88 78.84C490.36 81.18 488.74 84.78 488.74 88.38C488.92 91.8 490.36 95.4 492.88 97.38C493.96 98.1 495.22 98.64 496.48 99C499 100.08 501.7 100.44 504.58 100.98C505.12 100.98 505.66 101.16 506.38 101.16C509.26 101.7 512.14 102.42 513.58 104.58C514.66 106.38 514.84 108.9 514.12 110.52C512.86 113.4 509.26 113.94 505.66 113.94C501.16 113.58 496.84 112.14 493.06 107.64L487.12 112.68C488.74 114.3 490.54 115.74 492.52 117C496.3 119.16 500.62 120.78 505.3 120.78C509.8 120.78 514.84 119.52 517.9 116.64C520.24 114.48 521.5 111.42 522.04 107.64C522.22 106.38 522.04 105.3 521.86 104.22C521.32 101.88 520.06 99.54 518.26 97.92C517.36 97.2 516.28 96.48 515.2 96.12C514.12 95.58 513.04 95.4 511.96 95.22L501.7 93.06C500.8 92.88 500.08 92.7 499.18 92.16C497.92 91.44 496.66 90 496.48 88.38C496.3 86.58 497.56 84.78 498.82 83.52H499C500.62 82.26 502.06 81.9 504.04 82.08C507.46 82.26 512.14 83.7 515.2 86.94Z" fill="white"/>
<path fill-rule="evenodd" clip-rule="evenodd" d="M560.38 75.78H527.98V82.44H540.4V120.24H547.96V82.44H560.38" fill="white"/>
<path fill-rule="evenodd" clip-rule="evenodd" d="M586.48 74.52C583.96 74.52 581.44 75.06 578.92 76.14C576.4 77.22 574.06 79.02 572.08 81.36C570.1 83.7 568.48 86.4 567.58 89.28C566.5 92.16 566.14 95.22 566.14 97.92C566.14 100.8 566.5 103.68 567.58 106.56C568.48 109.44 570.1 112.32 572.08 114.48C574.06 116.82 576.4 118.62 578.92 119.7C581.44 120.96 583.96 121.5 586.48 121.5C588.82 121.5 591.34 120.96 593.86 119.7C596.38 118.62 598.72 116.82 600.88 114.48C602.86 112.32 604.3 109.44 605.38 106.56C606.28 103.68 606.82 100.8 606.82 97.92C606.82 95.22 606.28 92.16 605.38 89.28C604.3 86.4 602.86 83.7 600.88 81.36C598.72 79.02 596.38 77.22 593.86 76.14C591.34 75.06 588.82 74.52 586.48 74.52ZM586.48 81.54C589.9 81.54 592.96 83.16 595.48 86.22C597.82 89.46 599.08 93.6 599.08 97.92C599.08 99.9 598.9 102.06 598.18 104.04C597.64 106.02 596.74 108 595.48 109.62C594.22 111.24 592.78 112.5 591.16 113.22C589.54 114.12 587.92 114.48 586.48 114.48C583.06 114.48 579.82 112.68 577.48 109.62C575.14 106.56 573.7 102.42 573.7 97.92C573.7 95.94 574.06 93.96 574.6 91.8C575.32 89.82 576.22 87.84 577.48 86.22C578.74 84.6 580.18 83.34 581.8 82.62C583.42 81.72 584.86 81.54 586.48 81.54Z" fill="white"/>
<path fill-rule="evenodd" clip-rule="evenodd" d="M637.6 75.78C638.86 75.78 640.48 75.96 641.92 76.68C643.36 77.4 644.62 78.48 645.88 79.92C646.96 81.18 647.86 82.8 648.4 84.6C648.94 86.22 649.3 88.02 649.3 89.64C649.3 91.44 648.94 93.06 648.4 94.86C647.86 96.66 646.96 98.28 645.88 99.54C644.62 100.98 643.36 102.06 641.92 102.6C640.48 103.32 638.86 103.68 637.6 103.68H626.44V120.24H618.88V75.78H637.6ZM626.44 82.44V97.02H635.62C637.06 97.02 638.68 96.3 639.94 94.86C641.2 93.42 641.74 91.44 641.74 89.64C641.74 88.02 641.2 86.04 639.94 84.6C639.22 83.88 638.68 83.34 637.78 82.98C637.06 82.62 636.34 82.44 635.62 82.44H626.44Z" fill="white"/>
<path fill-rule="evenodd" clip-rule="evenodd" d="M556.06 156.96L551.74 155.16L548.68 163.44L545.26 171.36L541.48 178.56L537.34 185.4L542.02 190.08L545.44 184.14V220.32H551.74V172.26L557.14 160.38L558.94 159.84L559.3 159.12L558.4 158.04" fill="white"/>
<path fill-rule="evenodd" clip-rule="evenodd" d="M576.04 155.7V161.64H558.58V167.22H601.24V161.64H582.52V158.4L583.78 157.5L583.96 156.96L583.24 156.42L581.8 156.06" fill="white"/>
<path fill-rule="evenodd" clip-rule="evenodd" d="M563.62 170.64V183.96H595.3V170.64H563.62ZM569.38 179.28V175.32H589.36V179.28H569.38Z" fill="white"/>
<path fill-rule="evenodd" clip-rule="evenodd" d="M556.24 187.92V203.58H562.36V193.32H596.74V203.4H602.68V187.92" fill="white"/>
<path fill-rule="evenodd" clip-rule="evenodd" d="M565.96 198.18V203.94H577.66V209.34L577.48 211.68L576.58 213.3L574.78 214.2L572.44 214.38H568.84L570.46 219.96H574.42L579.28 218.7L582.34 216.54L583.78 213.66L583.6 209.7V203.94H592.78V198.18" fill="white"/>
<path d="M617.26 9.18001C619.24 9.18001 621.4 9.90001 622.84 11.52" stroke="#FF0000" stroke-width="2.88" stroke-linecap="round" stroke-linejoin="round"/>
<path d="M518.62 9.18001H617.26" stroke="#FF0000" stroke-width="2.88" stroke-linecap="round" stroke-linejoin="round"/>
<path d="M513.04 11.52C514.48 9.90001 516.64 9.18001 518.62 9.18001" stroke="#FF0000" stroke-width="2.88" stroke-linecap="round" stroke-linejoin="round"/>
<path d="M443.38 81.18L513.04 11.52" stroke="#FF0000" stroke-width="2.88" stroke-linecap="round" stroke-linejoin="round"/>
<path d="M441.04 86.76C441.04 84.6 441.94 82.62 443.38 81.18" stroke="#FF0000" stroke-width="2.88" stroke-linecap="round" stroke-linejoin="round"/>
<path d="M441.04 185.22V86.76" stroke="#FF0000" stroke-width="2.88" stroke-linecap="round" stroke-linejoin="round"/>
<path d="M443.38 190.98C441.94 189.54 441.04 187.38 441.04 185.22" stroke="#FF0000" stroke-width="2.88" stroke-linecap="round" stroke-linejoin="round"/>
<path d="M513.04 260.64L443.38 190.98" stroke="#FF0000" stroke-width="2.88" stroke-linecap="round" stroke-linejoin="round"/>
<path d="M518.62 262.98C516.64 262.98 514.48 262.08 513.04 260.64" stroke="#FF0000" stroke-width="2.88" stroke-linecap="round" stroke-linejoin="round"/>
<path d="M617.26 262.98H518.62" stroke="#FF0000" stroke-width="2.88" stroke-linecap="round" stroke-linejoin="round"/>
<path d="M622.84 260.64C621.4 262.08 619.24 262.98 617.26 262.98" stroke="#FF0000" stroke-width="2.88" stroke-linecap="round" stroke-linejoin="round"/>
<path d="M692.5 190.98L622.84 260.64" stroke="#FF0000" stroke-width="2.88" stroke-linecap="round" stroke-linejoin="round"/>
<path d="M694.84 185.22C694.84 187.38 693.94 189.36 692.5 190.98" stroke="#FF0000" stroke-width="2.88" stroke-linecap="round" stroke-linejoin="round"/>
<path d="M694.84 86.76V185.22" stroke="#FF0000" stroke-width="2.88" stroke-linecap="round" stroke-linejoin="round"/>
<path d="M692.5 81.18C693.94 82.62 694.84 84.6 694.84 86.76" stroke="#FF0000" stroke-width="2.88" stroke-linecap="round" stroke-linejoin="round"/>
<path d="M622.84 11.52L692.5 81.18" stroke="#FF0000" stroke-width="2.88" stroke-linecap="round" stroke-linejoin="round"/>
<path fill-rule="evenodd" clip-rule="evenodd" d="M410.04 136.08C410.04 119.52 406.8 103.32 400.5 88.2C394.2 72.9 385.02 59.22 373.32 47.52C361.8 36 347.94 26.82 332.82 20.52C317.7 14.22 301.32 10.98 284.94 10.98C268.56 10.98 252.18 14.22 237.06 20.52C221.94 26.82 208.08 36 196.56 47.52C184.86 59.22 175.68 72.9 169.38 88.2C163.08 103.32 159.84 119.52 159.84 136.08C159.84 152.46 163.08 168.66 169.38 183.78C175.68 199.08 184.86 212.76 196.56 224.46C208.08 235.98 221.94 245.34 237.06 251.46C252.18 257.76 268.56 261 284.94 261C301.32 261 317.7 257.76 332.82 251.46C347.94 245.34 361.8 235.98 373.32 224.46C385.02 212.76 394.2 199.08 400.5 183.78C406.8 168.66 410.04 152.46 410.04 136.08Z" fill="white"/>
<path fill-rule="evenodd" clip-rule="evenodd" d="M405 136.08C405 120.24 401.94 104.58 395.82 90C389.88 75.42 381.06 62.28 369.9 51.12C358.74 39.96 345.42 31.14 330.84 25.02C316.26 19.08 300.78 16.02 284.94 16.02C269.1 16.02 253.62 19.08 239.04 25.02C224.46 31.14 211.14 39.96 199.98 51.12C188.82 62.28 180 75.42 174.06 90C167.94 104.58 164.88 120.24 164.88 136.08C164.88 151.74 167.94 167.4 174.06 181.98C180 196.56 188.82 209.7 199.98 220.86C211.14 232.02 224.46 240.84 239.04 246.96C253.62 252.9 269.1 256.14 284.94 256.14C300.78 256.14 316.26 252.9 330.84 246.96C345.42 240.84 358.74 232.02 369.9 220.86C381.06 209.7 389.88 196.56 395.82 181.98C401.94 167.4 405 151.74 405 136.08Z" fill="#0000FF"/>
<path d="M410.04 136.08C410.04 102.78 396.9 71.1 373.32 47.52C349.92 24.12 318.06 10.98 284.94 10.98C251.82 10.98 219.96 24.12 196.56 47.52C172.98 71.1 159.84 102.78 159.84 136.08C159.84 169.2 172.98 201.06 196.56 224.46C219.96 247.86 251.82 261 284.94 261C318.06 261 349.92 247.86 373.32 224.46C396.9 201.06 410.04 169.2 410.04 136.08Z" stroke="#0000FF" stroke-width="2.88" stroke-linecap="round" stroke-linejoin="round"/>
<path d="M278.64 86.04H278.82" stroke="white" stroke-width="2.88" stroke-linecap="round" stroke-linejoin="round"/>
<path fill-rule="evenodd" clip-rule="evenodd" d="M278.64 86.04L245.34 119.34H387V152.64H245.34L278.64 185.94H228.6L178.56 136.08L228.6 86.04" fill="white"/>
<path fill-rule="evenodd" clip-rule="evenodd" d="M743.4 11H1140.6C1141.8 11 1143 11 1145.4 12.2C1146.6 12.2 1149 13.3998 1150.2 15.7998C1151.4 16.9998 1152.6 18.1999 1153.8 20.5999C1153.8 21.7999 1153.8 22.9997 1153.8 25.3997V245C1153.8 248.6 1152.6 252.2 1150.2 254.6C1149 255.8 1146.6 257 1145.4 258.2C1143 258.2 1141.8 259.4 1140.6 259.4H743.4C739.8 259.4 736.2 258.2 733.8 254.6C731.4 253.4 731.4 252.2 730.2 249.8C729 248.6 729 246.2 729 245V25.3997C729 21.7997 730.2 18.1998 733.8 15.7998C736.2 12.1998 739.8 11 743.4 11ZM765 46.9998V223.4H1119V46.9998H765Z" fill="#00FF00"/>
<path fill-rule="evenodd" clip-rule="evenodd" d="M765 46.9999H1119V223.4H765V46.9999Z" fill="white"/>
<path fill-rule="evenodd" clip-rule="evenodd" d="M1074.6 169.4V146.6H918.6V181.4H883.8V146.6H809.4V169.4L803.4 175.4V181.4H829.8C829.8 179 829.8 176.6 831 174.2C832.2 170.6 833.4 169.4 835.8 167C839.4 162.2 844.2 161 850.2 161C855 161 859.8 162.2 863.4 167C868.2 170.6 869.4 176.6 869.4 181.4V187.4H990.6V181.4C990.6 176.6 993 170.6 996.6 167C1000.2 162.2 1006.2 161 1011 161C1015.8 161 1020.6 162.2 1025.4 167C1029 170.6 1031.4 176.6 1031.4 181.4V187.4L1079.4 181.4V175.4L1074.6 169.4Z" fill="#00FF00"/>
<path fill-rule="evenodd" clip-rule="evenodd" d="M918.6 126.2H1074.6V144.2H918.6V126.2Z" fill="#00FF00"/>
<path fill-rule="evenodd" clip-rule="evenodd" d="M1060.2 77H845.4C843 77 839.4 78.2002 837 79.4002C834.6 81.8002 832.2 84.2002 831 86.6002L809.4 123.8H883.8V89.0001H918.6V123.8H1074.6L1065 81.8001C1065 79.4001 1062.6 77 1060.2 77ZM1056.6 89.0001L1062.6 117.8H999V89.0001H1056.6ZM988.2 89.0001V117.8H930.6V89.0001H988.2ZM873 117.8H826.2L843 89.0001H873V117.8Z" fill="#00FF00"/>
<path fill-rule="evenodd" clip-rule="evenodd" d="M809.4 126.2H883.8V144.2H809.4V126.2Z" fill="#00FF00"/>
<path fill-rule="evenodd" clip-rule="evenodd" d="M867 181.4C867 171.8 858.6 163.4 850.2 163.4C840.6 163.4 832.2 171.8 832.2 181.4C832.2 191 840.6 198.2 850.2 198.2C858.6 198.2 867 191 867 181.4ZM858.6 181.4C858.6 186.2 855 189.8 850.2 189.8C845.4 189.8 840.6 186.2 840.6 181.4C840.6 176.6 845.4 173 850.2 173C855 173 858.6 176.6 858.6 181.4Z" fill="#00FF00"/>
<path fill-rule="evenodd" clip-rule="evenodd" d="M1027.8 181.4C1027.8 171.8 1020.6 163.4 1011 163.4C1001.4 163.4 993 171.8 993 181.4C993 191 1001.4 198.2 1011 198.2C1020.6 198.2 1027.8 191 1027.8 181.4ZM1019.4 181.4C1019.4 186.2 1015.8 189.8 1011 189.8C1006.2 189.8 1002.6 186.2 1002.6 181.4C1002.6 176.6 1006.2 173 1011 173C1015.8 173 1019.4 176.6 1019.4 181.4Z" fill="#00FF00"/>
</svg>
